<mxfile host="65bd71144e" scale="1" border="10">
    <diagram id="-rriOPSDnHkLpZKLwRpb" name="Page-1">
        <mxGraphModel dx="2920" dy="2598" grid="1" gridSize="10" guides="1" tooltips="1" connect="1" arrows="1" fold="1" page="1" pageScale="1" pageWidth="850" pageHeight="1100" background="#FFFFFF" math="0" shadow="0">
            <root>
                <mxCell id="0"/>
                <mxCell id="1" parent="0"/>
                <mxCell id="420" value="(1, 1)" style="edgeStyle=none;html=1;endArrow=none;endFill=0;fontStyle=0" parent="1" target="437" edge="1">
                    <mxGeometry x="-0.4777" y="20" relative="1" as="geometry">
                        <mxPoint as="offset"/>
                        <mxPoint x="-2259.8323137919856" y="-1040.5489255167943" as="sourcePoint"/>
                    </mxGeometry>
                </mxCell>
                <mxCell id="435" style="edgeStyle=none;html=1;exitX=1;exitY=0.25;exitDx=0;exitDy=0;endArrow=none;endFill=0;fontStyle=0" parent="1" source="437" target="446" edge="1">
                    <mxGeometry relative="1" as="geometry">
                        <mxPoint x="-2119.86" y="-1020" as="targetPoint"/>
                        <Array as="points">
                            <mxPoint x="-2119.86" y="-990"/>
                        </Array>
                    </mxGeometry>
                </mxCell>
                <mxCell id="436" style="edgeStyle=none;html=1;exitX=1;exitY=0.75;exitDx=0;exitDy=0;endArrow=none;endFill=0;fontStyle=0" parent="1" source="437" target="453" edge="1">
                    <mxGeometry relative="1" as="geometry">
                        <Array as="points">
                            <mxPoint x="-2129.86" y="-970"/>
                        </Array>
                    </mxGeometry>
                </mxCell>
                <mxCell id="438" value="" style="endArrow=oval;html=1;fillStyle=auto;strokeWidth=1;startSize=6;endSize=6;fillColor=#000000;startArrow=none;startFill=0;endFill=0;fontStyle=0" parent="1" source="437" edge="1">
                    <mxGeometry width="50" height="50" relative="1" as="geometry">
                        <mxPoint x="-2233.5099999999998" y="-1023.9933333333333" as="sourcePoint"/>
                        <mxPoint x="-2277.57" y="-1020.6499999999999" as="targetPoint"/>
                    </mxGeometry>
                </mxCell>
                <mxCell id="439" value="titolo" style="edgeLabel;html=1;align=center;verticalAlign=middle;resizable=0;points=[];" parent="438" vertex="1" connectable="0">
                    <mxGeometry x="0.4791" y="1" relative="1" as="geometry">
                        <mxPoint x="-21" y="-10" as="offset"/>
                    </mxGeometry>
                </mxCell>
                <mxCell id="440" value="" style="endArrow=oval;html=1;fillStyle=auto;strokeWidth=1;startSize=6;endSize=6;fillColor=#000000;startArrow=none;startFill=0;endFill=0;exitX=0.117;exitY=1.013;exitDx=0;exitDy=0;exitPerimeter=0;fontStyle=0" parent="1" source="437" edge="1">
                    <mxGeometry width="50" height="50" relative="1" as="geometry">
                        <mxPoint x="-2302.3420980926426" y="-929.4299999999998" as="sourcePoint"/>
                        <mxPoint x="-2339.86" y="-950" as="targetPoint"/>
                    </mxGeometry>
                </mxCell>
                <mxCell id="441" value="LIS" style="edgeLabel;html=1;align=center;verticalAlign=middle;resizable=0;points=[];" parent="440" vertex="1" connectable="0">
                    <mxGeometry x="0.4791" y="1" relative="1" as="geometry">
                        <mxPoint x="-29" y="2" as="offset"/>
                    </mxGeometry>
                </mxCell>
                <mxCell id="442" value="" style="endArrow=oval;html=1;fillStyle=auto;strokeWidth=1;startSize=6;endSize=6;fillColor=#000000;startArrow=none;startFill=0;endFill=1;fontStyle=0" parent="1" edge="1">
                    <mxGeometry width="50" height="50" relative="1" as="geometry">
                        <mxPoint x="-2187.57" y="-980.6500000000001" as="sourcePoint"/>
                        <mxPoint x="-2287.57" y="-1010.6500000000001" as="targetPoint"/>
                        <Array as="points">
                            <mxPoint x="-2187.57" y="-1010.65"/>
                        </Array>
                    </mxGeometry>
                </mxCell>
                <mxCell id="443" value="" style="edgeStyle=none;shape=connector;rounded=1;fillStyle=auto;html=1;labelBackgroundColor=default;strokeColor=default;strokeWidth=1;fontFamily=Helvetica;fontSize=11;fontColor=default;endArrow=none;endFill=0;startSize=6;endSize=6;fillColor=#000000;exitX=1;exitY=0.5;exitDx=0;exitDy=0;entryX=0;entryY=0.5;entryDx=0;entryDy=0;fontStyle=0" parent="1" source="446" target="447" edge="1">
                    <mxGeometry relative="1" as="geometry"/>
                </mxCell>
                <mxCell id="444" value="(0, N)" style="edgeLabel;html=1;align=center;verticalAlign=middle;resizable=0;points=[];fontSize=11;fontFamily=Helvetica;fontColor=default;" parent="443" vertex="1" connectable="0">
                    <mxGeometry x="0.4262" y="1" relative="1" as="geometry">
                        <mxPoint x="-27" y="-12" as="offset"/>
                    </mxGeometry>
                </mxCell>
                <mxCell id="448" value="" style="endArrow=oval;html=1;fillStyle=auto;strokeWidth=1;startSize=6;endSize=6;fillColor=#000000;startArrow=none;startFill=0;endFill=1;fontStyle=0" parent="1" source="447" edge="1">
                    <mxGeometry width="50" height="50" relative="1" as="geometry">
                        <mxPoint x="-2267.36" y="-1060.92" as="sourcePoint"/>
                        <mxPoint x="-1919.5100000000002" y="-1040.42" as="targetPoint"/>
                    </mxGeometry>
                </mxCell>
                <mxCell id="449" value="nome" style="edgeLabel;html=1;align=center;verticalAlign=middle;resizable=0;points=[];" parent="448" vertex="1" connectable="0">
                    <mxGeometry x="0.4791" y="1" relative="1" as="geometry">
                        <mxPoint x="29" y="1" as="offset"/>
                    </mxGeometry>
                </mxCell>
                <mxCell id="450" value="" style="edgeStyle=none;shape=connector;rounded=1;fillStyle=auto;html=1;labelBackgroundColor=default;strokeColor=default;strokeWidth=1;fontFamily=Helvetica;fontSize=11;fontColor=default;endArrow=none;endFill=0;startSize=6;endSize=6;fillColor=#000000;exitX=1;exitY=0.5;exitDx=0;exitDy=0;entryX=0;entryY=0.5;entryDx=0;entryDy=0;fontStyle=0" parent="1" source="453" target="454" edge="1">
                    <mxGeometry relative="1" as="geometry"/>
                </mxCell>
                <mxCell id="451" value="(0, N)" style="edgeLabel;html=1;align=center;verticalAlign=middle;resizable=0;points=[];fontSize=11;fontFamily=Helvetica;fontColor=default;" parent="450" vertex="1" connectable="0">
                    <mxGeometry x="0.4262" y="1" relative="1" as="geometry">
                        <mxPoint x="-18" y="11" as="offset"/>
                    </mxGeometry>
                </mxCell>
                <mxCell id="455" value="" style="endArrow=oval;html=1;fillStyle=auto;strokeWidth=1;startSize=6;endSize=6;fillColor=#000000;startArrow=none;startFill=0;endFill=1;fontStyle=0" parent="1" source="454" edge="1">
                    <mxGeometry width="50" height="50" relative="1" as="geometry">
                        <mxPoint x="-2232.0600000000004" y="-700.5699999999998" as="sourcePoint"/>
                        <mxPoint x="-1919.5100000000002" y="-920.4200000000001" as="targetPoint"/>
                        <Array as="points"/>
                    </mxGeometry>
                </mxCell>
                <mxCell id="456" value="nome" style="edgeLabel;html=1;align=center;verticalAlign=middle;resizable=0;points=[];" parent="455" vertex="1" connectable="0">
                    <mxGeometry x="0.4791" y="1" relative="1" as="geometry">
                        <mxPoint x="29" y="1" as="offset"/>
                    </mxGeometry>
                </mxCell>
                <mxCell id="457" value="" style="endArrow=oval;html=1;fillStyle=auto;strokeWidth=1;startSize=6;endSize=6;fillColor=#000000;startArrow=none;startFill=0;endFill=0;fontStyle=0" parent="1" source="461" edge="1">
                    <mxGeometry width="50" height="50" relative="1" as="geometry">
                        <mxPoint x="-2384.87" y="-1163.9933333333336" as="sourcePoint"/>
                        <mxPoint x="-2378.93" y="-870.6500000000001" as="targetPoint"/>
                    </mxGeometry>
                </mxCell>
                <mxCell id="458" value="data&lt;br&gt;inizio" style="edgeLabel;html=1;align=center;verticalAlign=middle;resizable=0;points=[];" parent="457" vertex="1" connectable="0">
                    <mxGeometry x="0.4791" y="1" relative="1" as="geometry">
                        <mxPoint x="-3" y="-28" as="offset"/>
                    </mxGeometry>
                </mxCell>
                <mxCell id="459" style="edgeStyle=elbowEdgeStyle;html=1;exitX=0.5;exitY=1;exitDx=0;exitDy=0;entryX=0.5;entryY=0;entryDx=0;entryDy=0;endArrow=none;endFill=0;elbow=vertical;rounded=0;jumpStyle=arc;fontStyle=0" parent="1" target="461" edge="1">
                    <mxGeometry relative="1" as="geometry">
                        <mxPoint x="-2259.47" y="-960.4299999999998" as="sourcePoint"/>
                        <mxPoint x="-2319.48" y="-837.91" as="targetPoint"/>
                        <Array as="points">
                            <mxPoint x="-2298.93" y="-880.65"/>
                        </Array>
                    </mxGeometry>
                </mxCell>
                <mxCell id="460" style="edgeStyle=elbowEdgeStyle;elbow=vertical;html=1;exitX=0.5;exitY=1;exitDx=0;exitDy=0;entryX=0.5;entryY=0;entryDx=0;entryDy=0;endArrow=none;endFill=0;rounded=0;jumpStyle=arc;fontStyle=0" parent="1" target="463" edge="1">
                    <mxGeometry relative="1" as="geometry">
                        <mxPoint x="-2259.47" y="-960.4299999999998" as="sourcePoint"/>
                        <Array as="points">
                            <mxPoint x="-2208.93" y="-880.65"/>
                        </Array>
                    </mxGeometry>
                </mxCell>
                <mxCell id="462" value="" style="edgeStyle=none;html=1;endArrow=none;endFill=0;fontStyle=0" parent="1" source="463" target="478" edge="1">
                    <mxGeometry relative="1" as="geometry"/>
                </mxCell>
                <mxCell id="466" value="" style="endArrow=oval;html=1;fillStyle=auto;strokeWidth=1;startSize=6;endSize=6;fillColor=#000000;startArrow=none;startFill=0;endFill=0;exitX=0.25;exitY=1;exitDx=0;exitDy=0;fontStyle=0" parent="1" source="473" edge="1">
                    <mxGeometry width="50" height="50" relative="1" as="geometry">
                        <mxPoint x="-2169.3902458605116" y="-789.9099999999997" as="sourcePoint"/>
                        <mxPoint x="-2298.93" y="-780.6500000000001" as="targetPoint"/>
                    </mxGeometry>
                </mxCell>
                <mxCell id="467" value="minutaggio" style="edgeLabel;html=1;align=center;verticalAlign=middle;resizable=0;points=[];" parent="466" vertex="1" connectable="0">
                    <mxGeometry x="0.4791" y="1" relative="1" as="geometry">
                        <mxPoint y="16" as="offset"/>
                    </mxGeometry>
                </mxCell>
                <mxCell id="468" value="" style="endArrow=oval;html=1;fillStyle=auto;strokeWidth=1;startSize=6;endSize=6;fillColor=#000000;startArrow=none;startFill=0;endFill=0;fontStyle=0" parent="1" source="473" edge="1">
                    <mxGeometry width="50" height="50" relative="1" as="geometry">
                        <mxPoint x="-2159.3902458605116" y="-779.9099999999997" as="sourcePoint"/>
                        <mxPoint x="-2218.93" y="-860.6500000000001" as="targetPoint"/>
                    </mxGeometry>
                </mxCell>
                <mxCell id="469" value="durata" style="edgeLabel;html=1;align=center;verticalAlign=middle;resizable=0;points=[];" parent="468" vertex="1" connectable="0">
                    <mxGeometry x="0.4791" y="1" relative="1" as="geometry">
                        <mxPoint x="30" y="-5" as="offset"/>
                    </mxGeometry>
                </mxCell>
                <mxCell id="470" style="edgeStyle=none;shape=connector;rounded=1;fillStyle=auto;html=1;labelBackgroundColor=default;strokeColor=default;strokeWidth=1;fontFamily=Helvetica;fontSize=11;fontColor=default;endArrow=none;endFill=0;startSize=6;endSize=6;fillColor=#000000;startArrow=oval;startFill=0;fontStyle=0" parent="1" target="461" edge="1">
                    <mxGeometry relative="1" as="geometry">
                        <mxPoint x="-2338.895872814796" y="-801.0199999999998" as="targetPoint"/>
                        <mxPoint x="-2338.93" y="-860.6500000000001" as="sourcePoint"/>
                    </mxGeometry>
                </mxCell>
                <mxCell id="471" value="premium" style="edgeLabel;html=1;align=center;verticalAlign=middle;resizable=0;points=[];fontSize=11;fontFamily=Helvetica;fontColor=default;" parent="470" vertex="1" connectable="0">
                    <mxGeometry x="-0.2572" y="1" relative="1" as="geometry">
                        <mxPoint x="33" y="-8" as="offset"/>
                    </mxGeometry>
                </mxCell>
                <mxCell id="472" style="edgeStyle=none;jumpStyle=arc;html=1;exitX=0.5;exitY=0;exitDx=0;exitDy=0;entryX=1;entryY=0.5;entryDx=0;entryDy=0;entryPerimeter=0;endArrow=none;endFill=0;fontStyle=0" parent="1" source="473" target="464" edge="1">
                    <mxGeometry relative="1" as="geometry"/>
                </mxCell>
                <mxCell id="474" value="" style="endArrow=oval;html=1;fillStyle=auto;strokeWidth=1;startSize=6;endSize=6;fillColor=#000000;startArrow=none;startFill=0;endFill=0;fontStyle=0" parent="1" source="461" edge="1">
                    <mxGeometry width="50" height="50" relative="1" as="geometry">
                        <mxPoint x="-2357.1404769412693" y="-829.91" as="sourcePoint"/>
                        <mxPoint x="-2398.9300000000003" y="-860.6500000000001" as="targetPoint"/>
                    </mxGeometry>
                </mxCell>
                <mxCell id="475" value="data&lt;br&gt;fine" style="edgeLabel;html=1;align=center;verticalAlign=middle;resizable=0;points=[];" parent="474" vertex="1" connectable="0">
                    <mxGeometry x="0.4791" y="1" relative="1" as="geometry">
                        <mxPoint x="-25" y="-6" as="offset"/>
                    </mxGeometry>
                </mxCell>
                <mxCell id="477" value="(1, 1)" style="edgeStyle=none;html=1;endArrow=none;endFill=0;entryX=0.5;entryY=1;entryDx=0;entryDy=0;fontStyle=0" parent="1" source="478" edge="1">
                    <mxGeometry x="-0.768" y="10" relative="1" as="geometry">
                        <mxPoint as="offset"/>
                        <Array as="points">
                            <mxPoint x="-2260.28" y="-739.79"/>
                        </Array>
                        <mxPoint x="-2260.82" y="-799.9099999999999" as="targetPoint"/>
                    </mxGeometry>
                </mxCell>
                <mxCell id="481" style="edgeStyle=none;html=1;exitX=1;exitY=0.5;exitDx=0;exitDy=0;endArrow=none;endFill=0;fontStyle=0" parent="1" source="483" target="463" edge="1">
                    <mxGeometry relative="1" as="geometry">
                        <Array as="points">
                            <mxPoint x="-2079.86" y="-660"/>
                            <mxPoint x="-2079.86" y="-820"/>
                        </Array>
                    </mxGeometry>
                </mxCell>
                <mxCell id="482" style="edgeStyle=none;html=1;exitX=0;exitY=0.5;exitDx=0;exitDy=0;entryX=0.75;entryY=1;entryDx=0;entryDy=0;endArrow=none;endFill=0;fontStyle=0" parent="1" source="483" target="461" edge="1">
                    <mxGeometry relative="1" as="geometry">
                        <Array as="points">
                            <mxPoint x="-2239.86" y="-660"/>
                            <mxPoint x="-2339.86" y="-780"/>
                        </Array>
                    </mxGeometry>
                </mxCell>
                <mxCell id="484" value="(0, N)" style="edgeStyle=none;html=1;endArrow=none;endFill=0;exitX=0.5;exitY=1;exitDx=0;exitDy=0;fontStyle=0" parent="1" target="487" edge="1">
                    <mxGeometry x="0.6553" y="-20" relative="1" as="geometry">
                        <mxPoint as="offset"/>
                        <mxPoint x="-2360.4500000000003" y="-799.9099999999999" as="sourcePoint"/>
                    </mxGeometry>
                </mxCell>
                <mxCell id="486" value="(1, 1)" style="edgeStyle=none;html=1;endArrow=none;endFill=0;fontStyle=0" parent="1" source="487" target="485" edge="1">
                    <mxGeometry x="-0.4543" y="-19" relative="1" as="geometry">
                        <mxPoint as="offset"/>
                    </mxGeometry>
                </mxCell>
                <mxCell id="492" value="" style="endArrow=none;html=1;strokeColor=#000000;entryX=0;entryY=1;entryDx=0;entryDy=0;fontStyle=0" parent="1" target="493" edge="1">
                    <mxGeometry width="50" height="50" relative="1" as="geometry">
                        <mxPoint x="-2141.67" y="-840.3899999999999" as="sourcePoint"/>
                        <mxPoint x="-2119.86" y="-860" as="targetPoint"/>
                    </mxGeometry>
                </mxCell>
                <mxCell id="495" value="" style="endArrow=none;html=1;strokeColor=#000000;fontSize=11;fontColor=#FF0000;exitX=0;exitY=0.25;exitDx=0;exitDy=0;entryX=1;entryY=1;entryDx=0;entryDy=0;fontStyle=0" parent="1" source="485" target="496" edge="1">
                    <mxGeometry width="50" height="50" relative="1" as="geometry">
                        <mxPoint x="-2449.4700000000003" y="-620.13" as="sourcePoint"/>
                        <mxPoint x="-2429.86" y="-670" as="targetPoint"/>
                    </mxGeometry>
                </mxCell>
                <mxCell id="497" value="" style="endArrow=none;html=1;strokeColor=#000000;fontSize=11;fontColor=#FF0000;fontStyle=0" parent="1" edge="1">
                    <mxGeometry width="50" height="50" relative="1" as="geometry">
                        <mxPoint x="-2379.86" y="-600" as="sourcePoint"/>
                        <mxPoint x="-2379.86" y="-620" as="targetPoint"/>
                    </mxGeometry>
                </mxCell>
                <mxCell id="501" value="" style="endArrow=none;html=1;strokeColor=#000000;fontSize=10;fontColor=#FF0000;fontStyle=0" parent="1" edge="1">
                    <mxGeometry width="50" height="50" relative="1" as="geometry">
                        <mxPoint x="-2419.86" y="-640" as="sourcePoint"/>
                        <mxPoint x="-2339.86" y="-670" as="targetPoint"/>
                        <Array as="points">
                            <mxPoint x="-2419.86" y="-670"/>
                        </Array>
                    </mxGeometry>
                </mxCell>
                <mxCell id="506" value="" style="endArrow=none;html=1;fontSize=10;fontStyle=0" parent="1" edge="1">
                    <mxGeometry width="50" height="50" relative="1" as="geometry">
                        <mxPoint x="-2409.86" y="-780" as="sourcePoint"/>
                        <mxPoint x="-2390.86" y="-800" as="targetPoint"/>
                    </mxGeometry>
                </mxCell>
                <mxCell id="509" value="" style="endArrow=none;html=1;fontSize=11;exitX=0.193;exitY=1.011;exitDx=0;exitDy=0;exitPerimeter=0;fontStyle=0" parent="1" source="437" edge="1">
                    <mxGeometry width="50" height="50" relative="1" as="geometry">
                        <mxPoint x="-2299.86" y="-940" as="sourcePoint"/>
                        <mxPoint x="-2311.86" y="-936" as="targetPoint"/>
                    </mxGeometry>
                </mxCell>
                <mxCell id="512" value="" style="endArrow=none;html=1;fontSize=11;exitX=0.193;exitY=1.011;exitDx=0;exitDy=0;exitPerimeter=0;entryX=0;entryY=0;entryDx=0;entryDy=0;fontStyle=0" parent="1" target="513" edge="1">
                    <mxGeometry width="50" height="50" relative="1" as="geometry">
                        <mxPoint x="-2220.6699999999996" y="-960.4299999999998" as="sourcePoint"/>
                        <mxPoint x="-2203.86" y="-952" as="targetPoint"/>
                    </mxGeometry>
                </mxCell>
                <mxCell id="517" value="" style="edgeStyle=none;html=1;endArrow=none;endFill=0;fontStyle=0" parent="1" target="461" edge="1">
                    <mxGeometry x="-0.4777" y="20" relative="1" as="geometry">
                        <mxPoint as="offset"/>
                        <mxPoint x="-2419.86" y="-820" as="sourcePoint"/>
                        <mxPoint x="-2249.9775814708455" y="-990.43" as="targetPoint"/>
                    </mxGeometry>
                </mxCell>
                <mxCell id="437" value="CONTENUTO&lt;br&gt;MULTIMEDIALE" style="rounded=0;whiteSpace=wrap;html=1;" parent="1" vertex="1">
                    <mxGeometry x="-2320.05" y="-1000.43" width="120" height="40" as="geometry"/>
                </mxCell>
                <mxCell id="445" value="(1, 1)" style="edgeLabel;html=1;align=center;verticalAlign=middle;resizable=0;points=[];" parent="1" vertex="1" connectable="0">
                    <mxGeometry x="-2099.6063903913755" y="-1010.24082470871" as="geometry"/>
                </mxCell>
                <mxCell id="446" value="appartenenza" style="rhombus;whiteSpace=wrap;html=1;" parent="1" vertex="1">
                    <mxGeometry x="-2179.86" y="-1060.66" width="120" height="40" as="geometry"/>
                </mxCell>
                <mxCell id="447" value="CATEGORIA" style="rounded=0;whiteSpace=wrap;html=1;" parent="1" vertex="1">
                    <mxGeometry x="-2019.8600000000001" y="-1060.66" width="80" height="40" as="geometry"/>
                </mxCell>
                <mxCell id="452" value="(0, N)" style="edgeLabel;html=1;align=center;verticalAlign=middle;resizable=0;points=[];" parent="1" vertex="1" connectable="0">
                    <mxGeometry x="-2100.666390247731" y="-949.2406934179959" as="geometry"/>
                </mxCell>
                <mxCell id="453" value="&lt;font style=&quot;font-size: 11px;&quot;&gt;associazione&lt;sub&gt;(CM-H)&lt;/sub&gt;&lt;/font&gt;" style="rhombus;whiteSpace=wrap;html=1;" parent="1" vertex="1">
                    <mxGeometry x="-2199.86" y="-940.2" width="140" height="40.2" as="geometry"/>
                </mxCell>
                <mxCell id="454" value="HASHTAG" style="rounded=0;whiteSpace=wrap;html=1;" parent="1" vertex="1">
                    <mxGeometry x="-2019.56" y="-940.7099999999999" width="80" height="40" as="geometry"/>
                </mxCell>
                <mxCell id="461" value="LIVE" style="whiteSpace=wrap;html=1;" parent="1" vertex="1">
                    <mxGeometry x="-2399.4700000000003" y="-839.91" width="80" height="40" as="geometry"/>
                </mxCell>
                <mxCell id="463" value="VIDEO" style="whiteSpace=wrap;html=1;" parent="1" vertex="1">
                    <mxGeometry x="-2199.47" y="-839.91" width="80" height="40" as="geometry"/>
                </mxCell>
                <mxCell id="464" value="" style="shape=singleArrow;whiteSpace=wrap;html=1;arrowWidth=0.4;arrowSize=0.4;rotation=-90;fillColor=#000000;" parent="1" vertex="1">
                    <mxGeometry x="-2298.95" y="-939.92" width="78.91" height="39.32" as="geometry"/>
                </mxCell>
                <mxCell id="465" value="(e)" style="text;html=1;align=center;verticalAlign=middle;resizable=0;points=[];autosize=1;strokeColor=none;fillColor=none;" parent="1" vertex="1">
                    <mxGeometry x="-2239.47" y="-910.39" width="40" height="30" as="geometry"/>
                </mxCell>
                <mxCell id="473" value="CLIP" style="whiteSpace=wrap;html=1;" parent="1" vertex="1">
                    <mxGeometry x="-2299.47" y="-840.3899999999998" width="80" height="39.62" as="geometry"/>
                </mxCell>
                <mxCell id="476" value="(0, N)" style="edgeLabel;html=1;align=center;verticalAlign=middle;resizable=0;points=[];fontSize=11;fontFamily=Helvetica;fontColor=default;" parent="1" vertex="1" connectable="0">
                    <mxGeometry x="-2141.67" y="-769.0499999999995" as="geometry"/>
                </mxCell>
                <mxCell id="478" value="scomposizione" style="rhombus;whiteSpace=wrap;html=1;" parent="1" vertex="1">
                    <mxGeometry x="-2220.67" y="-758.4299999999998" width="120" height="40" as="geometry"/>
                </mxCell>
                <mxCell id="479" value="(0,1)" style="edgeLabel;html=1;align=center;verticalAlign=middle;resizable=0;points=[];" parent="1" vertex="1" connectable="0">
                    <mxGeometry x="-2229.0610213351565" y="-670.1253522979167" as="geometry"/>
                </mxCell>
                <mxCell id="480" value="(1,1)" style="edgeLabel;html=1;align=center;verticalAlign=middle;resizable=0;points=[];" parent="1" vertex="1" connectable="0">
                    <mxGeometry x="-2099.6076067585" y="-670.1265635923235" as="geometry"/>
                </mxCell>
                <mxCell id="483" value="riferimento" style="rhombus;whiteSpace=wrap;html=1;" parent="1" vertex="1">
                    <mxGeometry x="-2219.61" y="-679.6699999999998" width="120" height="40" as="geometry"/>
                </mxCell>
                <mxCell id="485" value="AFFLUENZA" style="whiteSpace=wrap;html=1;" parent="1" vertex="1">
                    <mxGeometry x="-2400.0600000000004" y="-659.67" width="80" height="39.62" as="geometry"/>
                </mxCell>
                <mxCell id="487" value="media&lt;br&gt;spettatori" style="rhombus;whiteSpace=wrap;html=1;" parent="1" vertex="1">
                    <mxGeometry x="-2409.78" y="-740" width="100.61" height="40" as="geometry"/>
                </mxCell>
                <mxCell id="493" value="" style="ellipse;whiteSpace=wrap;html=1;aspect=fixed;strokeColor=#000000;" parent="1" vertex="1">
                    <mxGeometry x="-2121.01" y="-866.9599999999999" width="5.67" height="5.67" as="geometry"/>
                </mxCell>
                <mxCell id="494" value="&lt;font style=&quot;font-size: 11px;&quot;&gt;durata&lt;/font&gt;" style="text;html=1;align=center;verticalAlign=middle;resizable=0;points=[];autosize=1;strokeColor=none;fillColor=none;" parent="1" vertex="1">
                    <mxGeometry x="-2119.47" y="-880.39" width="50" height="30" as="geometry"/>
                </mxCell>
                <mxCell id="496" value="" style="ellipse;whiteSpace=wrap;html=1;aspect=fixed;strokeColor=#000000;fontSize=11;fontColor=#FF0000;" parent="1" vertex="1">
                    <mxGeometry x="-2433.1300000000006" y="-675.26" width="5.13" height="5.13" as="geometry"/>
                </mxCell>
                <mxCell id="498" value="" style="ellipse;whiteSpace=wrap;html=1;aspect=fixed;strokeColor=#000000;fontSize=11;fontColor=#FF0000;" parent="1" vertex="1">
                    <mxGeometry x="-2382.73" y="-599.74" width="5.74" height="5.74" as="geometry"/>
                </mxCell>
                <mxCell id="499" value="&lt;font color=&quot;#000000&quot; style=&quot;font-size: 11px;&quot;&gt;numero &lt;br&gt;spettatori&lt;/font&gt;" style="text;html=1;align=center;verticalAlign=middle;resizable=0;points=[];autosize=1;strokeColor=none;fillColor=none;fontSize=11;fontColor=#FF0000;" parent="1" vertex="1">
                    <mxGeometry x="-2414.78" y="-599.74" width="70" height="40" as="geometry"/>
                </mxCell>
                <mxCell id="500" value="&lt;font style=&quot;font-size: 11px;&quot; color=&quot;#000000&quot;&gt;timestamp&lt;/font&gt;" style="text;html=1;align=center;verticalAlign=middle;resizable=0;points=[];autosize=1;strokeColor=none;fillColor=none;fontSize=10;fontColor=#FF0000;" parent="1" vertex="1">
                    <mxGeometry x="-2498" y="-689.6700000000001" width="70" height="30" as="geometry"/>
                </mxCell>
                <mxCell id="502" value="" style="shape=waypoint;fillStyle=solid;size=6;pointerEvents=1;points=[];fillColor=none;resizable=0;rotatable=0;perimeter=centerPerimeter;snapToPoint=1;strokeColor=#000000;fontSize=10;fontColor=#FF0000;" parent="1" vertex="1">
                    <mxGeometry x="-2429.78" y="-649.86" width="20" height="20" as="geometry"/>
                </mxCell>
                <mxCell id="507" value="" style="ellipse;whiteSpace=wrap;html=1;aspect=fixed;fontSize=10;" parent="1" vertex="1">
                    <mxGeometry x="-2412.86" y="-782.61" width="6.08" height="6.08" as="geometry"/>
                </mxCell>
                <mxCell id="508" value="&lt;font style=&quot;font-size: 11px;&quot;&gt;media&lt;br&gt;&amp;nbsp;affluenza&lt;/font&gt;" style="text;html=1;align=center;verticalAlign=middle;resizable=0;points=[];autosize=1;strokeColor=none;fillColor=none;fontSize=10;" parent="1" vertex="1">
                    <mxGeometry x="-2465.4700000000003" y="-794" width="66" height="38" as="geometry"/>
                </mxCell>
                <mxCell id="510" value="" style="ellipse;whiteSpace=wrap;html=1;aspect=fixed;fontSize=11;" parent="1" vertex="1">
                    <mxGeometry x="-2315.68" y="-937" width="5.92" height="5.92" as="geometry"/>
                </mxCell>
                <mxCell id="511" value="totale &lt;br&gt;likert" style="text;html=1;align=center;verticalAlign=middle;resizable=0;points=[];autosize=1;strokeColor=none;fillColor=none;fontSize=11;" parent="1" vertex="1">
                    <mxGeometry x="-2345.47" y="-937" width="45" height="38" as="geometry"/>
                </mxCell>
                <mxCell id="513" value="" style="ellipse;whiteSpace=wrap;html=1;aspect=fixed;fontSize=11;" parent="1" vertex="1">
                    <mxGeometry x="-2203.5099999999998" y="-952.2" width="5.92" height="5.92" as="geometry"/>
                </mxCell>
                <mxCell id="514" value="numero &lt;br&gt;likert" style="text;html=1;align=center;verticalAlign=middle;resizable=0;points=[];autosize=1;strokeColor=none;fillColor=none;fontSize=11;" parent="1" vertex="1">
                    <mxGeometry x="-2205.86" y="-968.24" width="55" height="38" as="geometry"/>
                </mxCell>
                <mxCell id="519" value="CANALE" style="rounded=0;whiteSpace=wrap;html=1;" parent="1" vertex="1">
                    <mxGeometry x="-2300.04" y="-1160.28" width="80" height="40" as="geometry"/>
                </mxCell>
                <mxCell id="523" value="" style="edgeStyle=none;shape=connector;rounded=1;fillStyle=auto;html=1;labelBackgroundColor=default;strokeColor=default;strokeWidth=1;fontFamily=Helvetica;fontSize=11;fontColor=default;endArrow=none;startSize=6;endSize=6;fillColor=#000000;entryX=0.5;entryY=0;entryDx=0;entryDy=0;exitX=0.5;exitY=1;exitDx=0;exitDy=0;" parent="1" target="525" edge="1">
                    <mxGeometry relative="1" as="geometry">
                        <mxPoint x="-2259.17" y="-1120.28" as="sourcePoint"/>
                        <mxPoint x="-2257.8199999999997" y="-1060.28" as="targetPoint"/>
                    </mxGeometry>
                </mxCell>
                <mxCell id="524" value="(0, N)" style="edgeLabel;html=1;align=center;verticalAlign=middle;resizable=0;points=[];fontSize=11;fontFamily=Helvetica;fontColor=default;" parent="523" vertex="1" connectable="0">
                    <mxGeometry x="-0.3032" relative="1" as="geometry">
                        <mxPoint x="-20" y="16" as="offset"/>
                    </mxGeometry>
                </mxCell>
                <mxCell id="525" value="contenitore" style="rhombus;whiteSpace=wrap;html=1;" parent="1" vertex="1">
                    <mxGeometry x="-2309.17" y="-1080.52" width="100" height="40" as="geometry"/>
                </mxCell>
                <mxCell id="526" value="titolo" style="edgeLabel;html=1;align=center;verticalAlign=middle;resizable=0;points=[];" parent="1" vertex="1" connectable="0">
                    <mxGeometry x="-2296.4786296149127" y="-1024.6993512278198" as="geometry"/>
                </mxCell>
            </root>
        </mxGraphModel>
    </diagram>
</mxfile>
